<?xml version="1.0" standalone="no"?>
<svg viewBox="0 0 200 200" xmlns="http://www.w3.org/2000/svg">
  <path fill="#E3F6F5" d="M47.3,-62.4C61.5,-54.9,73.1,-41.2,74.7,-26.6C76.3,-11.9,67.9,3.7,63.5,21.7C59.1,39.7,58.8,60.1,48.9,69.6C39,79.2,19.5,77.9,1.1,76.4C-17.3,74.9,-34.7,73.2,-46.5,64.3C-58.3,55.4,-64.6,39.2,-71.3,22.3C-77.9,5.4,-85,-12.3,-79.5,-24.7C-73.9,-37.2,-55.8,-44.6,-40.5,-51.6C-25.1,-58.7,-12.6,-65.6,2,-68.4C16.6,-71.1,33.2,-69.9,47.3,-62.4Z" transform="translate(100 100)" opacity="0.2"/>
</svg>
